<?xml version="1.0" standalone="no"?>
<!DOCTYPE svg PUBLIC "-//W3C//DTD SVG 20010904//EN"
 "http://www.w3.org/TR/2001/REC-SVG-20010904/DTD/svg10.dtd">
<svg version="1.0" xmlns="http://www.w3.org/2000/svg"
 width="700.000000pt" height="700.000000pt" viewBox="0 0 700.000000 700.000000"
 preserveAspectRatio="xMidYMid meet">
<metadata>
Created by potrace 1.11, written by Peter Selinger 2001-2013
</metadata>
<g transform="translate(0.000000,700.000000) scale(0.100000,-0.100000)"
fill="#000000" stroke="none">
<path d="M1388 6415 c-2 -2 -25 -5 -53 -8 -194 -20 -411 -141 -550 -308 -95
-113 -176 -293 -193 -429 -4 -30 -6 -1018 -6 -2195 l0 -2140 23 -84 c75 -279
250 -484 510 -597 169 -74 -21 -69 2381 -69 l2155 0 94 24 c320 82 563 326
643 646 l22 90 0 1695 1 1695 -24 50 c-20 39 -189 215 -785 813 -632 633 -770
767 -816 790 l-55 27 -1672 1 c-920 1 -1674 0 -1675 -1z m362 -1187 c0 -335 0
-609 -1 -610 -1 -2 10 -29 24 -60 33 -75 75 -119 145 -154 l57 -28 1230 0
1230 0 55 25 c111 51 173 147 173 264 0 124 -72 231 -185 273 -51 19 -84 20
-1033 21 -539 0 -1010 1 -1046 1 l-65 0 0 433 c0 237 3 434 7 437 5 4 2142 5
2196 1 7 -1 300 -289 652 -641 573 -573 641 -644 642 -673 5 -179 2 -3065 -3
-3103 -15 -100 -93 -195 -186 -228 -40 -14 -124 -19 -309 -17 l-83 1 -2 1057
-3 1058 -23 47 c-29 59 -83 113 -142 141 l-45 22 -1515 3 c-1325 2 -1520 0
-1566 -13 -61 -18 -137 -81 -174 -146 l-25 -44 -3 -1059 c-1 -583 -5 -1062 -7
-1065 -3 -2 -79 -4 -169 -4 -199 1 -241 12 -314 81 -48 46 -73 88 -88 147 -9
36 -12 4110 -2 4182 16 133 114 233 247 252 24 3 109 6 188 6 l143 0 0 -607z
m2916 -3185 l0 -873 -35 -1 c-42 0 -2283 0 -2292 1 -3 0 -5 393 -5 873 l0 874
1166 -1 1165 -1 1 -872z"/>
</g>
</svg>
